<svg 
 xmlns="http://www.w3.org/2000/svg"
 xmlns:xlink="http://www.w3.org/1999/xlink"
 width="180px" height="192px">
<path fill-rule="evenodd"  fill="rgb(252, 202, 204)"
 d="M124.000,-0.000 C124.000,-0.000 141.190,36.539 141.190,58.066 C141.190,116.474 93.842,163.823 35.434,163.823 C9.081,163.823 -0.000,156.000 -0.000,156.000 C-0.000,156.000 5.387,161.961 8.166,164.562 C17.595,173.388 28.574,180.269 41.102,185.202 C53.630,190.139 66.897,192.367 80.901,191.894 C94.904,191.421 107.987,188.304 120.153,182.533 C132.320,176.766 142.857,169.158 151.760,159.713 C160.663,150.268 167.579,139.276 172.507,126.731 C177.435,114.190 179.662,100.905 179.188,86.880 C178.715,72.859 175.596,59.755 169.834,47.571 C164.071,35.391 156.429,24.886 146.909,16.063 C133.114,3.279 124.000,-0.000 124.000,-0.000 Z"/>
</svg>