<svg 
 xmlns="http://www.w3.org/2000/svg"
 xmlns:xlink="http://www.w3.org/1999/xlink"
 width="814px" height="341px">
<path fill-rule="evenodd"  fill="rgb(252, 202, 204)"
 d="M693.794,95.955 L682.868,213.980 L636.264,209.666 L657.977,5.390 L704.134,5.390 L768.390,147.897 L769.522,5.390 L811.833,5.390 L811.833,228.481 L749.051,220.107 L693.794,95.955 ZM616.613,145.385 C610.774,157.533 603.067,167.986 593.492,176.749 C583.917,185.512 572.847,192.322 560.289,197.177 C547.730,202.035 534.453,204.180 520.453,203.619 C506.453,203.058 493.386,199.859 481.256,194.012 C469.126,188.169 458.684,180.497 449.931,171.000 C441.178,161.503 434.379,150.469 429.530,137.894 C424.681,125.322 422.541,112.024 423.103,98.002 C423.664,83.985 426.860,70.900 432.699,58.752 C438.538,46.609 446.198,36.150 455.682,27.383 C465.167,18.617 476.188,11.809 488.747,6.950 C501.305,2.096 514.587,-0.053 528.587,0.508 C542.587,1.068 555.650,4.272 567.780,10.115 C579.910,15.962 590.399,23.632 599.243,33.132 C608.087,42.633 614.933,53.673 619.782,66.244 C624.631,78.820 626.775,92.118 626.214,106.136 C625.652,120.158 622.452,133.242 616.613,145.385 ZM525.277,43.854 C492.350,43.854 465.657,70.546 465.657,103.473 C465.657,136.400 492.350,163.092 525.277,163.092 C558.203,163.092 584.896,136.400 584.896,103.473 C584.896,70.546 558.203,43.854 525.277,43.854 ZM387.760,170.713 C378.857,180.158 368.320,187.766 356.153,193.533 C343.987,199.304 330.904,202.421 316.901,202.894 C302.897,203.367 289.630,201.139 277.102,196.202 C264.574,191.269 253.595,184.388 244.166,175.562 C241.387,172.961 236.000,167.000 236.000,167.000 C236.000,167.000 245.081,174.823 271.434,174.823 C329.842,174.823 377.190,127.474 377.190,69.066 C377.190,47.539 360.000,11.000 360.000,11.000 C360.000,11.000 369.114,14.279 382.909,27.063 C392.429,35.886 400.071,46.391 405.834,58.571 C411.596,70.755 414.715,83.859 415.188,97.880 C415.662,111.905 413.435,125.190 408.507,137.731 C403.579,150.276 396.663,161.268 387.760,170.713 ZM156.150,128.770 L135.539,214.068 L88.929,218.305 L51.320,134.962 L53.626,221.514 L0.244,228.481 L0.244,5.390 L50.247,5.390 L105.202,140.353 L134.868,5.390 L184.871,5.390 L215.246,206.823 L168.636,211.059 L156.150,128.770 ZM19.476,274.637 C22.504,274.637 27.917,276.584 27.917,276.584 L127.175,286.176 L127.175,297.716 L27.972,311.128 C27.972,311.128 22.526,313.101 19.476,313.101 C8.854,313.101 0.244,304.491 0.244,293.869 C0.244,283.248 8.854,274.637 19.476,274.637 ZM654.131,247.713 C654.131,247.713 673.363,269.810 673.363,292.383 C673.363,315.946 654.131,340.026 654.131,340.026 L157.946,340.026 C157.946,340.026 138.714,315.097 138.714,291.149 C138.714,269.012 157.946,247.713 157.946,247.713 L654.131,247.713 ZM577.668,328.192 C591.965,328.192 602.217,320.174 602.217,307.307 C602.217,292.460 588.638,288.897 579.016,286.125 C570.384,283.651 566.337,282.364 566.337,279.098 C566.337,275.238 571.733,273.060 576.139,273.060 C582.434,273.060 586.030,277.613 586.030,280.978 L600.688,280.978 C600.688,270.487 592.235,258.510 576.319,258.510 C562.380,258.510 551.410,267.616 551.410,279.890 C551.410,294.836 567.506,298.597 576.678,300.972 C582.344,302.457 587.469,303.942 587.469,308.198 C587.469,311.068 585.041,314.136 578.477,314.136 C566.337,314.136 565.168,303.447 565.168,303.447 L550.511,303.447 C550.511,313.939 558.514,328.192 577.668,328.192 ZM472.911,327.004 L519.762,327.004 L519.762,311.959 L487.659,311.959 L487.659,300.378 L514.456,300.378 L514.456,286.323 L487.659,286.323 L487.659,274.743 L519.762,274.743 L519.762,259.698 L472.911,259.698 L472.911,327.004 ZM381.014,327.004 L395.762,327.004 L395.762,311.860 L406.283,299.191 L423.009,327.004 L442.163,327.004 L416.624,286.818 L437.666,259.698 L419.142,259.698 L395.762,289.293 L395.762,259.698 L381.014,259.698 L381.014,327.004 ZM296.222,327.004 L300.269,316.512 L329.764,316.512 L333.721,327.004 L349.457,327.004 L323.199,259.698 L306.743,259.698 L280.575,327.004 L296.222,327.004 ZM204.415,327.004 L234.540,327.004 C251.266,327.004 257.650,318.393 257.650,307.406 C257.650,300.180 254.413,294.341 248.478,291.074 C249.827,289.986 254.233,285.136 254.233,278.207 C254.233,267.418 248.658,259.698 230.943,259.698 L204.415,259.698 L204.415,327.004 ZM240.205,280.286 C240.205,285.531 238.227,287.610 231.842,287.610 L219.163,287.610 L219.163,273.555 L231.842,273.555 C237.507,273.555 240.205,275.733 240.205,280.286 ZM241.734,306.515 C241.734,310.870 238.766,313.048 232.831,313.048 L219.163,313.048 L219.163,299.982 L232.831,299.982 C238.676,299.982 241.734,301.566 241.734,306.515 ZM324.638,303.249 L305.394,303.249 L315.106,278.108 L324.638,303.249 ZM794.524,274.637 C805.145,274.637 813.756,283.248 813.756,293.869 C813.756,304.491 805.145,313.101 794.524,313.101 C791.496,313.101 786.083,311.154 786.083,311.154 L686.825,301.562 L686.825,290.023 L786.028,276.611 C786.028,276.611 791.474,274.637 794.524,274.637 Z"/>
</svg>